<svg width="338" height="48" viewBox="0 0 338 48" fill="none" xmlns="http://www.w3.org/2000/svg">
<path d="M16.63 9.056C19.574 9.056 21.9353 10.0373 23.714 12C25.4927 13.932 26.382 16.6 26.382 20.004V35H18.562V21.062C18.562 19.3447 18.1173 18.0107 17.228 17.06C16.3387 16.1093 15.1427 15.634 13.64 15.634C12.1373 15.634 10.9413 16.1093 10.052 17.06C9.16267 18.0107 8.718 19.3447 8.718 21.062V35H0.852V0.96H8.718V12.782C9.51533 11.6473 10.604 10.7427 11.984 10.068C13.364 9.39333 14.9127 9.056 16.63 9.056ZM55.1241 21.752C55.1241 22.488 55.0781 23.2547 54.9861 24.052H37.1841C37.3068 25.6467 37.8128 26.8733 38.7021 27.732C39.6221 28.56 40.7414 28.974 42.0601 28.974C44.0228 28.974 45.3874 28.146 46.1541 26.49H54.5261C54.0968 28.1767 53.3148 29.6947 52.1801 31.044C51.0761 32.3933 49.6808 33.4513 47.9941 34.218C46.3074 34.9847 44.4214 35.368 42.3361 35.368C39.8214 35.368 37.5828 34.8313 35.6201 33.758C33.6574 32.6847 32.1241 31.1513 31.0201 29.158C29.9161 27.1647 29.3641 24.834 29.3641 22.166C29.3641 19.498 29.9008 17.1673 30.9741 15.174C32.0781 13.1807 33.6114 11.6473 35.5741 10.574C37.5368 9.50067 39.7908 8.964 42.3361 8.964C44.8201 8.964 47.0281 9.48533 48.9601 10.528C50.8921 11.5707 52.3948 13.058 53.4681 14.99C54.5721 16.922 55.1241 19.176 55.1241 21.752ZM47.0741 19.682C47.0741 18.3327 46.6141 17.2593 45.6941 16.462C44.7741 15.6647 43.6241 15.266 42.2441 15.266C40.9254 15.266 39.8061 15.6493 38.8861 16.416C37.9968 17.1827 37.4448 18.2713 37.2301 19.682H47.0741ZM56.7898 22.12C56.7898 19.4827 57.2805 17.1673 58.2618 15.174C59.2738 13.1807 60.6385 11.6473 62.3558 10.574C64.0731 9.50067 65.9898 8.964 68.1058 8.964C69.9151 8.964 71.4945 9.332 72.8438 10.068C74.2238 10.804 75.2818 11.77 76.0178 12.966V9.332H83.8838V35H76.0178V31.366C75.2511 32.562 74.1778 33.528 72.7978 34.264C71.4485 35 69.8691 35.368 68.0598 35.368C65.9745 35.368 64.0731 34.8313 62.3558 33.758C60.6385 32.654 59.2738 31.1053 58.2618 29.112C57.2805 27.088 56.7898 24.7573 56.7898 22.12ZM76.0178 22.166C76.0178 20.2033 75.4658 18.6547 74.3618 17.52C73.2885 16.3853 71.9698 15.818 70.4058 15.818C68.8418 15.818 67.5078 16.3853 66.4038 17.52C65.3305 18.624 64.7938 20.1573 64.7938 22.12C64.7938 24.0827 65.3305 25.6467 66.4038 26.812C67.5078 27.9467 68.8418 28.514 70.4058 28.514C71.9698 28.514 73.2885 27.9467 74.3618 26.812C75.4658 25.6773 76.0178 24.1287 76.0178 22.166ZM96.5205 0.96V35H88.6545V0.96H96.5205ZM115.607 28.33V35H111.605C108.753 35 106.53 34.31 104.935 32.93C103.34 31.5193 102.543 29.2347 102.543 26.076V15.864H99.4149V9.332H102.543V3.076H110.409V9.332H115.561V15.864H110.409V26.168C110.409 26.9347 110.593 27.4867 110.961 27.824C111.329 28.1613 111.942 28.33 112.801 28.33H115.607ZM134.846 9.056C137.79 9.056 140.152 10.0373 141.93 12C143.709 13.932 144.598 16.6 144.598 20.004V35H136.778V21.062C136.778 19.3447 136.334 18.0107 135.444 17.06C134.555 16.1093 133.359 15.634 131.856 15.634C130.354 15.634 129.158 16.1093 128.268 17.06C127.379 18.0107 126.934 19.3447 126.934 21.062V35H119.068V0.96H126.934V12.782C127.732 11.6473 128.82 10.7427 130.2 10.068C131.58 9.39333 133.129 9.056 134.846 9.056ZM175.364 9.332L159.264 47.19H150.8L156.688 34.126L146.246 9.332H155.032L160.966 25.386L166.854 9.332H175.364ZM179.957 5.146C179.313 5.146 178.761 4.916 178.301 4.456C177.841 3.996 177.611 3.42867 177.611 2.754C177.611 2.07933 177.841 1.52733 178.301 1.098C178.761 0.637998 179.313 0.407998 179.957 0.407998C180.601 0.407998 181.138 0.637998 181.567 1.098C182.027 1.52733 182.257 2.07933 182.257 2.754C182.257 3.42867 182.027 3.996 181.567 4.456C181.138 4.916 180.601 5.146 179.957 5.146ZM181.521 40.934C181.521 42.958 181.015 44.4453 180.003 45.396C178.991 46.3773 177.473 46.868 175.449 46.868H173.195V44.108H174.943C176.139 44.108 176.998 43.8473 177.519 43.326C178.04 42.8353 178.301 41.992 178.301 40.796V9.884H181.521V40.934ZM198.972 35.368C196.611 35.368 194.48 34.8467 192.578 33.804C190.708 32.7307 189.22 31.228 188.116 29.296C187.043 27.3333 186.506 25.0487 186.506 22.442C186.506 19.8353 187.058 17.566 188.162 15.634C189.266 13.6713 190.769 12.1687 192.67 11.126C194.572 10.0527 196.703 9.516 199.064 9.516C201.426 9.516 203.557 10.0527 205.458 11.126C207.39 12.1687 208.893 13.6713 209.966 15.634C211.07 17.566 211.622 19.8353 211.622 22.442C211.622 25.018 211.07 27.2873 209.966 29.25C208.862 31.2127 207.344 32.7307 205.412 33.804C203.48 34.8467 201.334 35.368 198.972 35.368ZM198.972 32.562C200.628 32.562 202.162 32.194 203.572 31.458C204.983 30.6913 206.118 29.5567 206.976 28.054C207.866 26.5207 208.31 24.65 208.31 22.442C208.31 20.234 207.881 18.3787 207.022 16.876C206.164 15.3427 205.029 14.208 203.618 13.472C202.208 12.7053 200.674 12.322 199.018 12.322C197.362 12.322 195.829 12.7053 194.418 13.472C193.008 14.208 191.873 15.3427 191.014 16.876C190.186 18.3787 189.772 20.234 189.772 22.442C189.772 24.65 190.186 26.5207 191.014 28.054C191.873 29.5567 192.992 30.6913 194.372 31.458C195.783 32.194 197.316 32.562 198.972 32.562ZM238.33 9.884V35H235.11V30.584C234.374 32.148 233.239 33.344 231.706 34.172C230.173 35 228.455 35.414 226.554 35.414C223.549 35.414 221.095 34.494 219.194 32.654C217.293 30.7833 216.342 28.0847 216.342 24.558V9.884H219.516V24.19C219.516 26.9193 220.191 29.0047 221.54 30.446C222.92 31.8873 224.791 32.608 227.152 32.608C229.575 32.608 231.507 31.8413 232.948 30.308C234.389 28.7747 235.11 26.5207 235.11 23.546V9.884H238.33ZM247.981 14.346C248.687 12.782 249.76 11.5707 251.201 10.712C252.673 9.85333 254.467 9.424 256.583 9.424V12.782H255.709C253.379 12.782 251.508 13.4107 250.097 14.668C248.687 15.9253 247.981 18.026 247.981 20.97V35H244.761V9.884H247.981V14.346ZM272.283 9.424C275.289 9.424 277.742 10.3593 279.643 12.23C281.545 14.07 282.495 16.7533 282.495 20.28V35H279.321V20.648C279.321 17.9187 278.631 15.8333 277.251 14.392C275.902 12.9507 274.047 12.23 271.685 12.23C269.263 12.23 267.331 12.9967 265.889 14.53C264.448 16.0633 263.727 18.3173 263.727 21.292V35H260.507V9.884H263.727V14.162C264.525 12.6287 265.675 11.4633 267.177 10.666C268.68 9.838 270.382 9.424 272.283 9.424ZM311.421 21.154C311.421 22.258 311.39 23.1013 311.329 23.684H290.491C290.583 25.5853 291.043 27.2107 291.871 28.56C292.699 29.9093 293.787 30.9367 295.137 31.642C296.486 32.3167 297.958 32.654 299.553 32.654C301.638 32.654 303.386 32.148 304.797 31.136C306.238 30.124 307.189 28.7593 307.649 27.042H311.053C310.439 29.4953 309.121 31.504 307.097 33.068C305.103 34.6013 302.589 35.368 299.553 35.368C297.191 35.368 295.075 34.8467 293.205 33.804C291.334 32.7307 289.862 31.228 288.789 29.296C287.746 27.3333 287.225 25.0487 287.225 22.442C287.225 19.8353 287.746 17.5507 288.789 15.588C289.831 13.6253 291.288 12.1227 293.159 11.08C295.029 10.0373 297.161 9.516 299.553 9.516C301.945 9.516 304.03 10.0373 305.809 11.08C307.618 12.1227 308.998 13.5333 309.949 15.312C310.93 17.06 311.421 19.0073 311.421 21.154ZM308.155 21.062C308.185 19.1913 307.802 17.5967 307.005 16.278C306.238 14.9593 305.18 13.9627 303.831 13.288C302.481 12.6133 301.009 12.276 299.415 12.276C297.023 12.276 294.983 13.0427 293.297 14.576C291.61 16.1093 290.675 18.2713 290.491 21.062H308.155ZM337.092 9.884L322.188 46.822H318.83L323.706 34.862L313.402 9.884H316.944L325.5 31.32L333.78 9.884H337.092Z" fill="white"/>
</svg>
