<svg width="260" height="36" viewBox="0 0 260 36" fill="none" xmlns="http://www.w3.org/2000/svg">
<path d="M11.77 6.824C13.946 6.824 15.6913 7.54933 17.006 9C18.3207 10.428 18.978 12.4 18.978 14.916V26H13.198V15.698C13.198 14.4287 12.8693 13.4427 12.212 12.74C11.5547 12.0373 10.6707 11.686 9.56 11.686C8.44933 11.686 7.56533 12.0373 6.908 12.74C6.25067 13.4427 5.922 14.4287 5.922 15.698V26H0.108V0.84H5.922V9.578C6.51133 8.73933 7.316 8.07067 8.336 7.572C9.356 7.07333 10.5007 6.824 11.77 6.824ZM40.9022 16.208C40.9022 16.752 40.8682 17.3187 40.8002 17.908H27.6422C27.7328 19.0867 28.1068 19.9933 28.7642 20.628C29.4442 21.24 30.2715 21.546 31.2462 21.546C32.6968 21.546 33.7055 20.934 34.2722 19.71H40.4602C40.1428 20.9567 39.5648 22.0787 38.7262 23.076C37.9102 24.0733 36.8788 24.8553 35.6322 25.422C34.3855 25.9887 32.9915 26.272 31.4502 26.272C29.5915 26.272 27.9368 25.8753 26.4862 25.082C25.0355 24.2887 23.9022 23.1553 23.0862 21.682C22.2702 20.2087 21.8622 18.486 21.8622 16.514C21.8622 14.542 22.2588 12.8193 23.0522 11.346C23.8682 9.87267 25.0015 8.73933 26.4522 7.946C27.9028 7.15267 29.5688 6.756 31.4502 6.756C33.2862 6.756 34.9182 7.14133 36.3462 7.912C37.7742 8.68267 38.8848 9.782 39.6782 11.21C40.4942 12.638 40.9022 14.304 40.9022 16.208ZM34.9522 14.678C34.9522 13.6807 34.6122 12.8873 33.9322 12.298C33.2522 11.7087 32.4022 11.414 31.3822 11.414C30.4075 11.414 29.5802 11.6973 28.9002 12.264C28.2428 12.8307 27.8348 13.6353 27.6762 14.678H34.9522ZM42.8133 16.48C42.8133 14.5307 43.176 12.8193 43.9013 11.346C44.6493 9.87267 45.658 8.73933 46.9273 7.946C48.1967 7.15267 49.6133 6.756 51.1773 6.756C52.5147 6.756 53.682 7.028 54.6793 7.572C55.6993 8.116 56.4813 8.83 57.0253 9.714V7.028H62.8393V26H57.0253V23.314C56.4587 24.198 55.6653 24.912 54.6453 25.456C53.648 26 52.4807 26.272 51.1433 26.272C49.602 26.272 48.1967 25.8753 46.9273 25.082C45.658 24.266 44.6493 23.1213 43.9013 21.648C43.176 20.152 42.8133 18.4293 42.8133 16.48ZM57.0253 16.514C57.0253 15.0633 56.6173 13.9187 55.8013 13.08C55.008 12.2413 54.0333 11.822 52.8773 11.822C51.7213 11.822 50.7353 12.2413 49.9193 13.08C49.126 13.896 48.7293 15.0293 48.7293 16.48C48.7293 17.9307 49.126 19.0867 49.9193 19.948C50.7353 20.7867 51.7213 21.206 52.8773 21.206C54.0333 21.206 55.008 20.7867 55.8013 19.948C56.6173 19.1093 57.0253 17.9647 57.0253 16.514ZM72.8595 0.84V26H67.0455V0.84H72.8595ZM87.6468 21.07V26H84.6888C82.5808 26 80.9375 25.49 79.7588 24.47C78.5802 23.4273 77.9908 21.7387 77.9908 19.404V11.856H75.6788V7.028H77.9908V2.404H83.8048V7.028H87.6128V11.856H83.8048V19.472C83.8048 20.0387 83.9408 20.4467 84.2128 20.696C84.4848 20.9453 84.9382 21.07 85.5728 21.07H87.6468ZM102.547 6.824C104.723 6.824 106.469 7.54933 107.783 9C109.098 10.428 109.755 12.4 109.755 14.916V26H103.975V15.698C103.975 14.4287 103.647 13.4427 102.989 12.74C102.332 12.0373 101.448 11.686 100.337 11.686C99.2267 11.686 98.3427 12.0373 97.6853 12.74C97.028 13.4427 96.6993 14.4287 96.6993 15.698V26H90.8853V0.84H96.6993V9.578C97.2887 8.73933 98.0933 8.07067 99.1133 7.572C100.133 7.07333 101.278 6.824 102.547 6.824ZM133.176 7.028L121.276 35.01H115.02L119.372 25.354L111.653 7.028H118.148L122.534 18.894L126.886 7.028H133.176ZM137.454 4.342C136.865 4.342 136.366 4.138 135.958 3.73C135.573 3.322 135.38 2.82333 135.38 2.234C135.38 1.64467 135.573 1.146 135.958 0.737999C136.366 0.329999 136.865 0.125999 137.454 0.125999C138.043 0.125999 138.531 0.329999 138.916 0.737999C139.324 1.146 139.528 1.64467 139.528 2.234C139.528 2.82333 139.324 3.322 138.916 3.73C138.531 4.138 138.043 4.342 137.454 4.342ZM138.984 30.046C138.984 31.7007 138.565 32.9133 137.726 33.684C136.887 34.4547 135.663 34.84 134.054 34.84H132.252V32.222H133.544C134.405 32.222 135.006 32.052 135.346 31.712C135.709 31.372 135.89 30.794 135.89 29.978V7.368H138.984V30.046ZM152.348 26.306C150.602 26.306 149.016 25.9093 147.588 25.116C146.182 24.3227 145.072 23.2007 144.256 21.75C143.462 20.2767 143.066 18.5767 143.066 16.65C143.066 14.746 143.474 13.0687 144.29 11.618C145.128 10.1447 146.262 9.02267 147.69 8.252C149.118 7.45867 150.716 7.062 152.484 7.062C154.252 7.062 155.85 7.45867 157.278 8.252C158.706 9.02267 159.828 10.1333 160.644 11.584C161.482 13.0347 161.902 14.7233 161.902 16.65C161.902 18.5767 161.471 20.2767 160.61 21.75C159.771 23.2007 158.626 24.3227 157.176 25.116C155.725 25.9093 154.116 26.306 152.348 26.306ZM152.348 23.586C153.458 23.586 154.501 23.3253 155.476 22.804C156.45 22.2827 157.232 21.5007 157.822 20.458C158.434 19.4153 158.74 18.146 158.74 16.65C158.74 15.154 158.445 13.8847 157.856 12.842C157.266 11.7993 156.496 11.0287 155.544 10.53C154.592 10.0087 153.56 9.748 152.45 9.748C151.316 9.748 150.274 10.0087 149.322 10.53C148.392 11.0287 147.644 11.7993 147.078 12.842C146.511 13.8847 146.228 15.154 146.228 16.65C146.228 18.1687 146.5 19.4493 147.044 20.492C147.61 21.5347 148.358 22.3167 149.288 22.838C150.217 23.3367 151.237 23.586 152.348 23.586ZM182.494 7.368V26H179.4V23.246C178.81 24.198 177.983 24.946 176.918 25.49C175.875 26.0113 174.719 26.272 173.45 26.272C171.999 26.272 170.696 25.9773 169.54 25.388C168.384 24.776 167.466 23.8693 166.786 22.668C166.128 21.4667 165.8 20.0047 165.8 18.282V7.368H168.86V17.874C168.86 19.71 169.324 21.1267 170.254 22.124C171.183 23.0987 172.452 23.586 174.062 23.586C175.716 23.586 177.02 23.076 177.972 22.056C178.924 21.036 179.4 19.5513 179.4 17.602V7.368H182.494ZM190.812 10.394C191.356 9.32867 192.126 8.50133 193.124 7.912C194.144 7.32267 195.379 7.028 196.83 7.028V10.224H196.014C192.546 10.224 190.812 12.1053 190.812 15.868V26H187.718V7.368H190.812V10.394ZM209.479 7.028C211.746 7.028 213.582 7.71933 214.987 9.102C216.393 10.462 217.095 12.434 217.095 15.018V26H214.035V15.46C214.035 13.6013 213.571 12.1847 212.641 11.21C211.712 10.2127 210.443 9.714 208.833 9.714C207.201 9.714 205.898 10.224 204.923 11.244C203.971 12.264 203.495 13.7487 203.495 15.698V26H200.401V7.368H203.495V10.02C204.107 9.068 204.935 8.33133 205.977 7.81C207.043 7.28867 208.21 7.028 209.479 7.028ZM239.149 15.97C239.149 16.5593 239.115 17.1827 239.047 17.84H224.155C224.269 19.676 224.892 21.1153 226.025 22.158C227.181 23.178 228.575 23.688 230.207 23.688C231.545 23.688 232.655 23.382 233.539 22.77C234.446 22.1353 235.081 21.2967 235.443 20.254H238.775C238.277 22.0447 237.279 23.5067 235.783 24.64C234.287 25.7507 232.429 26.306 230.207 26.306C228.439 26.306 226.853 25.9093 225.447 25.116C224.065 24.3227 222.977 23.2007 222.183 21.75C221.39 20.2767 220.993 18.5767 220.993 16.65C220.993 14.7233 221.379 13.0347 222.149 11.584C222.92 10.1333 223.997 9.02267 225.379 8.252C226.785 7.45867 228.394 7.062 230.207 7.062C231.975 7.062 233.539 7.44733 234.899 8.218C236.259 8.98867 237.302 10.054 238.027 11.414C238.775 12.7513 239.149 14.27 239.149 15.97ZM235.953 15.324C235.953 14.1453 235.693 13.1367 235.171 12.298C234.65 11.4367 233.936 10.7907 233.029 10.36C232.145 9.90667 231.159 9.68 230.071 9.68C228.507 9.68 227.17 10.1787 226.059 11.176C224.971 12.1733 224.348 13.556 224.189 15.324H235.953ZM259.281 7.368L248.061 34.772H244.865L248.537 25.796L241.023 7.368H244.457L250.305 22.464L256.085 7.368H259.281Z" fill="#9FC743"/>
</svg>
