<svg width="120" height="20" viewBox="0 0 120 20" fill="none" xmlns="http://www.w3.org/2000/svg">
<g clip-path="url(#clip0)">
<path d="M19.9479 7.67197C19.8169 7.26699 19.4577 6.97936 19.0328 6.94106L13.2602 6.4169L10.9776 1.0742C10.8093 0.682654 10.426 0.429199 10.0001 0.429199C9.57422 0.429199 9.19091 0.682654 9.0226 1.07512L6.73998 6.4169L0.966514 6.94106C0.542309 6.98027 0.184023 7.26699 0.0523365 7.67197C-0.0793503 8.07695 0.0422654 8.52114 0.363166 8.80115L4.72653 12.6278L3.43987 18.2956C3.34572 18.7123 3.50747 19.1431 3.85325 19.393C4.0391 19.5273 4.25655 19.5956 4.47582 19.5956C4.66488 19.5956 4.85242 19.5447 5.02073 19.444L10.0001 16.468L14.9776 19.444C15.3419 19.6631 15.801 19.6431 16.146 19.393C16.492 19.1423 16.6536 18.7114 16.5594 18.2956L15.2728 12.6278L19.6361 8.80191C19.957 8.52114 20.0796 8.07771 19.9479 7.67197Z" fill="#FFC107"/>
</g>
<g clip-path="url(#clip1)">
<path d="M44.9479 7.67197C44.8169 7.26699 44.4577 6.97936 44.0328 6.94106L38.2602 6.4169L35.9776 1.0742C35.8093 0.682654 35.426 0.429199 35.0001 0.429199C34.5742 0.429199 34.1909 0.682654 34.0226 1.07512L31.74 6.4169L25.9665 6.94106C25.5423 6.98027 25.184 7.26699 25.0523 7.67197C24.9206 8.07695 25.0423 8.52114 25.3632 8.80115L29.7265 12.6278L28.4399 18.2956C28.3457 18.7123 28.5075 19.1431 28.8532 19.393C29.0391 19.5273 29.2565 19.5956 29.4758 19.5956C29.6649 19.5956 29.8524 19.5447 30.0207 19.444L35.0001 16.468L39.9776 19.444C40.3419 19.6631 40.801 19.6431 41.146 19.393C41.492 19.1423 41.6536 18.7114 41.5594 18.2956L40.2728 12.6278L44.6361 8.80191C44.957 8.52114 45.0796 8.07771 44.9479 7.67197Z" fill="#FFC107"/>
</g>
<g clip-path="url(#clip2)">
<path d="M69.9479 7.67197C69.8169 7.26699 69.4577 6.97936 69.0328 6.94106L63.2602 6.4169L60.9776 1.0742C60.8093 0.682654 60.426 0.429199 60.0001 0.429199C59.5742 0.429199 59.1909 0.682654 59.0226 1.07512L56.74 6.4169L50.9665 6.94106C50.5423 6.98027 50.184 7.26699 50.0523 7.67197C49.9206 8.07695 50.0423 8.52114 50.3632 8.80115L54.7265 12.6278L53.4399 18.2956C53.3457 18.7123 53.5075 19.1431 53.8532 19.393C54.0391 19.5273 54.2565 19.5956 54.4758 19.5956C54.6649 19.5956 54.8524 19.5447 55.0207 19.444L60.0001 16.468L64.9776 19.444C65.3419 19.6631 65.801 19.6431 66.146 19.393C66.492 19.1423 66.6536 18.7114 66.5594 18.2956L65.2728 12.6278L69.6361 8.80191C69.957 8.52114 70.0796 8.07771 69.9479 7.67197Z" fill="#FFC107"/>
</g>
<g clip-path="url(#clip3)">
<path d="M94.9479 7.67197C94.8169 7.26699 94.4577 6.97936 94.0328 6.94106L88.2602 6.4169L85.9776 1.0742C85.8093 0.682654 85.426 0.429199 85.0001 0.429199C84.5742 0.429199 84.1909 0.682654 84.0226 1.07512L81.74 6.4169L75.9665 6.94106C75.5423 6.98027 75.184 7.26699 75.0523 7.67197C74.9206 8.07695 75.0423 8.52114 75.3632 8.80115L79.7265 12.6278L78.4399 18.2956C78.3457 18.7123 78.5075 19.1431 78.8532 19.393C79.0391 19.5273 79.2565 19.5956 79.4758 19.5956C79.6649 19.5956 79.8524 19.5447 80.0207 19.444L85.0001 16.468L89.9776 19.444C90.3419 19.6631 90.801 19.6431 91.146 19.393C91.492 19.1423 91.6536 18.7114 91.5594 18.2956L90.2728 12.6278L94.6361 8.80191C94.957 8.52114 95.0796 8.07771 94.9479 7.67197Z" fill="#FFC107"/>
</g>
<g clip-path="url(#clip4)">
<path d="M119.948 7.67197C119.817 7.26699 119.458 6.97936 119.033 6.94106L113.26 6.4169L110.978 1.0742C110.809 0.682654 110.426 0.429199 110 0.429199C109.574 0.429199 109.191 0.682654 109.023 1.07512L106.74 6.4169L100.967 6.94106C100.542 6.98027 100.184 7.26699 100.052 7.67197C99.9206 8.07695 100.042 8.52114 100.363 8.80115L104.727 12.6278L103.44 18.2956C103.346 18.7123 103.507 19.1431 103.853 19.393C104.039 19.5273 104.257 19.5956 104.476 19.5956C104.665 19.5956 104.852 19.5447 105.021 19.444L110 16.468L114.978 19.444C115.342 19.6631 115.801 19.6431 116.146 19.393C116.492 19.1423 116.654 18.7114 116.559 18.2956L115.273 12.6278L119.636 8.80191C119.957 8.52114 120.08 8.07771 119.948 7.67197Z" fill="#FFC107"/>
</g>
<defs>
<clipPath id="clip0">
<rect width="20" height="20" fill="white"/>
</clipPath>
<clipPath id="clip1">
<rect width="20" height="20" fill="white" transform="translate(25)"/>
</clipPath>
<clipPath id="clip2">
<rect width="20" height="20" fill="white" transform="translate(50)"/>
</clipPath>
<clipPath id="clip3">
<rect width="20" height="20" fill="white" transform="translate(75)"/>
</clipPath>
<clipPath id="clip4">
<rect width="20" height="20" fill="white" transform="translate(100)"/>
</clipPath>
</defs>
</svg>
